<svg xmlns="http://www.w3.org/2000/svg" viewBox="0 0 48 48" width="48px" height="48px">
  <path fill="#EA4335" d="M24 9.5c3.94 0 7.06 1.63 9.19 3L39 7.7C35.21 4.8 30.01 3 24 3 14.69 3 6.61 8.48 3 16l7.33 5.7C11.27 15.58 17.07 9.5 24 9.5z"/>
  <path fill="#34A853" d="M46.5 24.5c0-1.57-.14-3.08-.39-4.5H24v9h12.7c-.55 2.85-2.24 5.27-4.7 6.9l7.32 5.7C43.44 37.69 46.5 31.51 46.5 24.5z"/>
  <path fill="#4A90E2" d="M24 46.5c6.01 0 11.21-1.99 14.97-5.4l-7.32-5.7c-2.09 1.42-4.74 2.3-7.65 2.3-5.89 0-10.89-3.98-12.68-9.35l-7.33 5.7C6.61 39.52 14.69 46.5 24 46.5z"/>
  <path fill="#FBBC05" d="M11.32 28.35c-.47-1.42-.72-2.94-.72-4.5s.25-3.08.72-4.5l-7.33-5.7C3.68 16.92 3 20.37 3 24s.68 7.08 1.99 10.35l7.33-6z"/>
</svg>
